<?xml version="1.0" encoding="UTF-8"?><svg id="Layer_2" xmlns="http://www.w3.org/2000/svg" viewBox="0 0 112.97 124.22"><g id="Layer_1-2"><path d="M112.97,46.77c.01-3.14-1.08-5.17-3.58-7.1C93.19,27.22,77.05,14.68,61.06,1.96c-3.42-2.72-5.9-2.52-9.18,.07C35.96,14.61,19.95,27.07,3.85,39.42,1.04,41.58-.02,43.93,0,47.42c.13,19.65,.04,39.31,.07,58.97,.02,11.82,5.95,17.75,17.82,17.8,12.81,.06,25.63,.01,38.44,.01,13.15,0,26.29,.05,39.44-.02,10.9-.05,17.08-6.11,17.13-16.95,.09-20.15-.02-40.31,.07-60.46Zm-46.39,69.49c-6.66-.16-13.32-.18-19.97,0-2.84,.08-3.74-.8-3.67-3.66,.18-7.33,.06-14.66,.06-21.99,0-7,.09-14-.05-20.99-.05-2.6,.37-3.89,3.45-3.78,6.82,.24,13.65,.16,20.47,.03,2.33-.05,3.18,.58,3.16,3.05-.1,14.66-.12,29.33,0,43.99,.02,2.72-.88,3.42-3.46,3.36Zm38.36-37.63c0,9.32,.05,18.65-.02,27.97-.05,7.12-2.52,9.52-9.66,9.6-4.49,.05-8.99-.18-13.47,.08-3.13,.18-3.93-.88-3.9-3.93,.15-15.65,.08-31.3,.06-46.95,0-6.89-.59-7.47-7.31-7.47-9.81,0-19.63,.14-29.44-.06-4.53-.09-6.26,1.7-6.23,6.18,.12,15.32-.24,30.64,.2,45.94,.15,5.48-1.64,6.83-6.62,6.31-3.79-.39-7.64-.01-11.47-.1-6.26-.14-8.97-2.61-9-8.71-.1-19.48,0-38.96-.08-58.43,0-2.1,.84-3.32,2.41-4.53,14.59-11.29,29.16-22.61,43.64-34.05,2.01-1.59,3.17-1.33,5.02,.13,14.35,11.29,28.76,22.52,43.25,33.64,2.12,1.63,2.72,3.4,2.68,5.93-.12,9.49-.05,18.98-.05,28.47Z"/></g></svg>