<?xml version="1.0" encoding="UTF-8"?><svg id="Layer_2" xmlns="http://www.w3.org/2000/svg" viewBox="0 0 139.68 105.45"><g id="Layer_1-2"><path d="M139.68,34.33c-.03-2.24-1.25-3.38-3.34-3.56-1.65-.14-3.32-.06-4.99-.06q-11.24,0-15.54-10.5C110.55,7.31,100.94,.52,87.09,.19c-11.64-.28-23.29-.24-34.92,0-12.17,.24-21.24,6.03-27,16.68-2.34,4.33-2.8,10.83-6.25,13.11-3.5,2.32-9.63,.64-14.61,.74-3.74,.07-4.86,1.83-4.07,5.53,1.05,4.9,2.16,9.29,9.04,7.31-5.45,10.22-7.36,26.07-3.32,33.52,2.37,4.38,2.87,8.65,2.73,13.3-.05,1.66-.04,3.33,0,4.99,.14,5.79,2.75,8.95,7.96,9.66,10.05,1.38,16.19-.56,17.73-6,.66-2.33,.61-4.97,.37-7.42-.33-3.34,.9-4.08,4.1-4.06,18.79,.15,37.59,.07,56.38,.08,2.97,0,6.73-.95,8.71,.49,2.16,1.57,.56,5.55,.79,8.47,.41,5.13,3.7,8.22,9.2,8.53,11.19,.63,15.99-1.34,16.76-7.24,.41-3.11,.01-6.32,.22-9.47,.18-2.74-.9-5.63,1.09-8.19,2.78-3.58,3.47-7.81,3.41-12.23-.12-8.3,1.36-16.89-5.58-24.05,7.22-.24,9.93-3.2,9.84-9.61ZM35.58,69.57c-2.12,.36-4.27,.49-4.98,.56-10.35-.03-14.29-3.74-12.99-10.77,.74-4.02,3.37-6.03,7.07-6.65,5.55-.92,14.47,7.11,14.4,12.73-.03,2.38-1.28,3.74-3.5,4.12Zm-.74-30.14c2.21-5.32,4.03-10.47,6.45-15.31,2.17-4.34,6.19-6.42,11.03-6.45,11.64-.07,23.29-.06,34.93,0,4.88,.02,8.9,2.21,11.09,6.43,2.5,4.8,4.21,10.01,6.38,15.33H34.83Zm86.89,24.86c-1.39,4.93-5.43,5.76-9.82,5.84-.5,0-1,0-2.11,0-2.77-.65-7.42,1.21-8.98-3.25-1.44-4.12,1.81-7.08,4.43-9.89,.34-.36,.72-.69,1.09-1.02,3.52-3.02,7.44-4.75,11.81-2.14,3.94,2.35,4.76,6.24,3.57,10.46Z"/></g></svg>