<?xml version="1.0" encoding="UTF-8"?><svg id="Layer_2" xmlns="http://www.w3.org/2000/svg" viewBox="0 0 77.97 101.12"><g id="Layer_1-2"><g><path d="M42.98,51.07c0,14.64-.03,29.28,.03,43.93,.01,3.06-.24,6.12-4.04,6.11-3.81-.01-4-3.11-4-6.14,.04-29.62,.04-59.23,0-88.85C34.96,3.05,35.2-.01,39,0c3.81,.01,4.01,3.11,4,6.14-.05,14.97-.02,29.95-.02,44.92Z"/><path d="M69.95,68.05c0-9.14,.05-18.29-.03-27.43-.03-3,.61-5.63,4.03-5.63,3.44,0,4.03,2.65,4.02,5.63-.05,18.29-.06,36.58,0,54.87,0,3-.61,5.63-4.03,5.63-3.44,0-4.04-2.65-4.02-5.63,.08-9.14,.03-18.29,.03-27.43Z"/><path d="M8.02,80.01c0,5.33-.06,10.66,.03,15.98,.05,2.93-.98,5.13-4.05,5.13C.9,101.11-.02,98.83,0,95.95c.06-10.82,.05-21.64,0-32.47,0-2.85,.78-5.05,4.05-5.08,3.38-.03,3.97,2.37,3.96,5.13,0,5.49,0,10.99,0,16.48Z"/></g></g></svg>