<?xml version="1.0" encoding="UTF-8"?><svg id="Layer_2" xmlns="http://www.w3.org/2000/svg" viewBox="0 0 145.21 114.34"><g id="Layer_1-2"><g><path d="M78.78,0c-4.56,.11-7.02,1.33-8.15,4.32-1.22,3.26-.65,6.3,2.1,8.6,10.72,8.97,21.46,17.91,32.24,26.81,6.02,4.98,12.03,9.97,18.22,14.73,2.98,2.29,2.16,3.65-.27,5.63-15.71,12.83-31.34,25.77-47,38.67-1.03,.85-2.1,1.65-3.07,2.55-3.32,3.07-3.75,7.64-1.04,10.69,2.52,2.84,7.01,3.21,10.38,.45,19.8-16.24,39.57-32.52,59.25-48.91,4.97-4.14,5.02-8.48,.1-12.57C121.88,34.57,102.08,18.31,82.33,2c-1.45-1.2-3.05-2.04-3.54-2Z"/><path d="M8.5,0C4.51,.13,2.26,1.1,1,3.55-.4,6.26-.42,9.08,1.51,11.55c1.11,1.42,2.59,2.57,3.99,3.74,15.46,12.92,30.88,25.9,46.47,38.66,3.11,2.54,3.33,3.87,.08,6.53-15.98,13.06-31.78,26.35-47.63,39.57-4.77,3.98-5.73,8.43-2.63,11.95,2.9,3.29,7.31,2.99,11.9-.82,18.68-15.54,37.37-31.07,56.04-46.63,6.3-5.25,6.3-9.41,.03-14.63C51.12,34.32,32.44,18.76,13.77,3.18,11.84,1.56,9.94-.08,8.5,0Z"/></g></g></svg>