<?xml version="1.0" encoding="UTF-8"?><svg id="Layer_2" xmlns="http://www.w3.org/2000/svg" viewBox="0 0 171.48 213.6"><g id="Layer_1-2"><path d="M85.83,0c30.66,.44,58.32,9.73,82.5,28.96,.91,.72,1.8,1.46,2.64,2.26,.5,.47,.76,1.08,.2,1.73-.56,.65-1.17,.48-1.74,.07-.81-.58-1.58-1.21-2.36-1.83C119.17-6.81,53.13-7.07,4.95,30.44c-1.35,1.05-3,4.18-4.55,2.31-1.52-1.84,1.69-3.06,3.09-4.17C27.58,9.54,55.13,.37,85.83,0Z"/><path d="M83.66,39.72c22.97,.4,41.34,6.75,57.51,19.26,1,.78,3.39,1.62,2.2,3.2-1.27,1.67-2.54-.42-3.64-1.24-33.64-24.92-73.8-24.88-107.71,.09-1.07,.79-2.46,2.85-3.66,1.06-1.03-1.54,1.28-2.35,2.36-3.2,15.25-12.14,35.74-19.19,52.95-19.18Z"/><path d="M85.97,82.28c-9.94-.04-18.22,2.48-25.88,7.22-1.04,.64-2.45,2.16-3.45,.72-1.1-1.58,1.02-2.08,1.95-2.73,14.67-10.36,38.7-10.35,53.62,0,.95,.66,2.91,1.17,1.78,2.79-.84,1.21-2.11-.03-3.03-.61-7.92-4.98-16.52-7.57-24.99-7.39Z"/><path d="M154.76,146.17c-1.47-2.68-4.5-1.35-6.87-1.6-.82-.09-1.69-.15-2.49,0-7.56,1.52-11.43-1.54-14.14-8.88-4.61-12.51-14.79-18.6-27.86-19.08-12.81-.47-25.66-.5-38.46,0-12.83,.5-22.4,6.68-27.8,18.66-.96,2.12-2.11,4.18-2.79,6.38-.73,2.36-2.08,3.03-4.41,2.94-4.16-.16-8.33-.13-12.49-.01-3.24,.09-4.75,1.4-4.05,5.11,.96,5.1,3.13,8.17,9.07,6.94-4.74,8.14-7.5,22.4-3.83,28.98,3.45,6.19,3.19,12.27,3.34,18.65,.12,4.97,2.85,8.09,7.79,8.72,2.3,.29,4.65,.15,6.98,.15,9.35,0,11.97-2.42,11.88-11.77-.03-3.52,1-4.49,4.49-4.46,20.65,.15,41.3,.19,61.95-.02,4.05-.04,5.28,1.22,4.86,5.07-.41,3.75-.18,7.69,3.75,9.55,5.99,2.83,12.47,2.65,18.42,.35,5.37-2.07,4.36-7.54,4.6-12.18,.17-3.23-.61-6.41,1.01-9.72,5.36-10.98,5.02-21.92-1.39-33.08,2.38-.82,5.88,1.02,7.08-2.17,1-2.68,2.98-5.61,1.37-8.54Zm-105.17,34.18c-2.1,.4-4.29,.36-6.44,.52v-.19c-1.5,0-3.01,.11-4.49-.02-5.36-.47-8.24-3.86-7.68-8.94,.48-4.35,4.69-7.68,9.37-6.83,5.77,1.04,9.9,4.59,12.25,9.92,1.23,2.79,.08,4.96-3.01,5.55Zm59.33-27.71H48.66c2.21-4.89,3.92-9.17,6.04-13.24,2.45-4.71,6.72-6.78,11.9-6.81,11.63-.08,23.26-.08,34.89,0,6.94,.04,11.25,3.55,13.87,10.02,4.11,10.13,4.32,10.04-6.45,10.04Zm21.38,27.99c-1.64,.19-3.32,.03-4.98,.03v.1c-.17,0-.33,.02-.5,0-3.3-.38-7.86,1.14-9.09-3.11-1.19-4.1,2.28-6.96,5.27-9.4,2.62-2.14,5.51-3.77,9.08-3.39,4.4,.47,7.48,3.72,7.55,7.87,.07,4.33-2.68,7.38-7.33,7.9Z"/></g></svg>